<svg viewBox="0 0 300 300" xmlns="http://www.w3.org/2000/svg">
  <!-- Circular black background -->
  <circle cx="150" cy="150" r="150" fill="#000000"/>
  
  <!-- Logo paths -->
  <g transform="translate(0, 0)">
    <path d="M213.12305,98.94097c6.8584,-0.33735 19.4707,0.24478 15.74414,10.69805c-0.3501,0.97969 -1.35791,2.65313 -2.02002,3.44619c-6.96826,8.34375 -17.79053,13.31997 -27.60205,17.43589c8.97363,-0.5354 24.05566,2.82334 29.48877,10.27295c1.82227,2.48481 2.56201,5.60215 2.04639,8.64053c-0.55078,3.43066 -2.58545,6.41309 -4.87207,8.93555c-17.43604,19.23633 -70.06494,31.08105 -95.70557,37.83545c-10.66509,2.72168 -21.23379,5.80811 -31.68765,9.25342c-15.94395,5.35547 -30.12319,11.68359 -43.81714,21.52441c1.79575,-2.18555 9.67617,-8.21045 11.98887,-9.91406c3.52485,-2.70117 7.39907,-5.05957 11.23623,-7.28906c18.00835,-10.46045 37.87236,-17.13428 57.84507,-22.73145c19.72368,-5.52686 51.48442,-11.7583 66.6646,-25.05029c3.44385,-3.01465 6.72803,-7.23779 6.99023,-11.98975c0.15234,-2.76123 -0.87451,-5.42021 -2.73047,-7.45444c-5.30127,-5.81118 -16.16162,-6.80317 -23.66016,-6.64673c-3.49951,0.07295 -7.05469,0.502 -10.5498,0.32622l-0.19189,-0.01128c-2.16357,4.70361 -4.0752,9.85151 -6.43359,14.46738c-1.98193,-1.93213 -4.29199,-4.23384 -6.03516,-6.39565c-1.39014,-1.72456 -2.76855,-3.70474 -4.1499,-5.49448c2.79932,-6.28037 5.35547,-13.16631 8.39941,-19.29741c10.81201,-5.02236 17.75098,-10.43071 25.3418,-19.45488c7.89697,-0.50039 15.80127,-0.86938 23.70996,-1.10654z" fill="#fefefe"/>
    <path d="M195.11279,105.67456c6.84814,-0.77007 16.8999,2.72959 11.87988,11.4791c-3.87012,6.74502 -13.49707,11.05811 -20.83008,12.9873c-4.08984,0.99712 -7.82373,1.18726 -11.98242,1.56943c0.71924,-1.33506 1.28467,-3.00132 1.94678,-4.4168c2.38184,-5.09341 4.71826,-11.58691 8.1665,-16.03271c2.93701,-3.78647 6.23145,-5.07568 10.81934,-5.58633z" fill="#000000"/>
    <path d="M159.86719,76.379c6.73975,-0.7229 20.15625,0.56968 24.82617,5.0332c12.71045,12.14824 -8.53271,27.88711 -18.1582,33.14736c-10.81201,5.90771 -19.57178,9.15015 -31.41211,10.2542c9.42422,1.95835 11.36719,6.37236 16.43701,13.85903c4.41064,6.51211 9.94629,13.48052 16.30811,18.17681c4.41211,3.28271 9.52881,5.4917 14.94287,6.44971c1.10303,0.20361 2.14307,0.34277 3.24316,0.48486c0.73242,0.09375 3.41016,-0.02051 3.75586,0.20068c-6.87451,1.18066 -16.36084,1.25244 -23.17822,-0.29736c-18.59033,-4.229 -28.2561,-15.87891 -37.84658,-31.20469c-1.6374,-2.527 -3.36504,-5.2062 -5.30625,-7.49663c1.07681,-3.16729 1.50762,-3.21475 4.78608,-3.55635c11.2166,-1.21978 21.16802,-4.71401 30.32769,-11.45479c6.81445,-4.84556 14.60889,-16.74551 5.37598,-23.25806c-3.55078,-2.50474 -10.56006,-3.19482 -14.87109,-3.03794c-11.13647,0.40518 -22.20073,2.86099 -33.01978,5.37876c-10.94707,2.61123 -21.86323,5.3499 -32.74644,8.21558c-2.99019,0.78794 -7.20117,2.17222 -10.03872,2.71816c2.67832,-1.41357 7.47041,-3.0939 10.35923,-4.27896c8.83813,-3.62534 18.38071,-6.57715 27.57729,-9.24038c15.44326,-4.47202 32.6644,-8.97876 48.63794,-10.09321z" fill="#fefefe"/>
    <path d="M130.55669,89.0751c0.67456,0.05669 1.63535,0.45703 1.67139,1.11152c0.15117,2.74775 -1.94194,7.6979 -2.84253,10.15942c-1.57925,4.31367 -3.21138,8.60786 -4.8958,12.88154c-4.20352,10.95952 -8.61284,21.83906 -13.22549,32.63276c1.57236,-0.80317 3.00923,-1.35923 4.61587,-2.27666c2.94727,-1.68296 5.05078,-3.44839 7.55112,-5.63921c-9.20127,12.06431 -29.29951,24.80552 -42.20669,33.24009c-1.94678,1.27441 -5.83711,3.95068 -7.75078,4.82373c2.31152,-1.94238 4.5353,-3.49805 6.72407,-5.67041c8.32661,-8.26465 12.63735,-18.19189 17.14761,-28.85845c3.16758,-7.50469 6.17153,-15.07749 9.00981,-22.71284c1.87222,-5.05313 3.81035,-10.0377 5.25542,-15.23672c1.91792,-6.9 -5.00156,-5.64888 -9.27729,-5.18774c7.6856,-2.96147 16.42207,-4.83926 24.15659,-7.93315c1.23413,-0.4938 2.77764,-0.97031 4.0667,-1.33389z" fill="#fefefe"/>
    <path d="M114.6041,207.74561c3.31421,-1.5542 6.90205,-2.81543 10.32979,-4.17773c13.471,-5.35107 27.28975,-9.1582 41.18672,-13.27002c26.16943,-7.7417 52.99951,-16.71973 75.24023,-32.99414c1.0957,-0.80273 2.13428,-1.73584 3.20361,-2.57666c0.08789,0.0293 0.17578,0.05713 0.26514,0.08496l0.03809,-0.05273l-0.09668,-0.17285l0.23145,-0.07471l-0.15967,0.25195l-0.14795,-0.15234l0.03809,0.28418c-11.65869,12.47754 -24.67529,20.70117 -40.26416,27.48047c-19.16748,8.33496 -39.10107,12.2915 -59.29673,17.13867c-6.60923,1.55859 -13.17847,3.28271 -19.70156,5.16943c-2.146,0.61084 -8.62441,2.51221 -10.60576,3.37939z" fill="#fefefe"/>
    <path d="M146.17104,158.39795c1.01206,0.44238 3.30601,2.19727 4.48374,2.86084c3.01172,1.69629 5.39063,2.58838 8.57959,3.7251c-1.1499,1.79297 -3.11719,4.94824 -4.75781,6.21826c-2.93408,2.2749 -7.87646,4.00928 -11.43091,5.46387l-15.86133,6.36182c-2.46357,0.93311 -7.7165,3.15527 -10.03022,3.59766c2.74307,-1.29932 5.17529,-2.23975 7.81963,-3.81592c10.17217,-6.06152 15.91729,-14.1709 21.19731,-24.41162z" fill="#fefefe"/>
    <path d="M114.8647,208.06348c-0.57627,0.20508 -1.30386,0.52441 -1.89126,0.51416c0.38643,-0.37354 1.11328,-0.61523 1.63066,-0.83203z" fill="#cdcdd1"/>
  </g>
</svg>
